<svg xmlns="http://www.w3.org/2000/svg" viewBox="0 0 374 110"><defs><style>.a{fill:#100e0f;}</style></defs><title>GitHub_Logo</title><path class="a" d="M78.28,47H48A1.42,1.42,0,0,0,46.6,48.4V63.2A1.42,1.42,0,0,0,48,64.62H59.82V83s-2.65.9-10,.9c-8.65,0-20.73-3.16-20.73-29.72S41.69,24.12,53.5,24.12c10.22,0,14.63,1.8,17.43,2.67a1.42,1.42,0,0,0,1.69-1.39L76,11.1a1.32,1.32,0,0,0-.54-1.1c-1.14-.81-8.08-4.7-25.62-4.7-20.21,0-40.93,8.6-40.93,49.92S32.64,102.7,52.63,102.7c16.56,0,26.6-7.08,26.6-7.08a1.22,1.22,0,0,0,.46-1.07V48.4A1.41,1.41,0,0,0,78.28,47Z"/><path class="a" d="M234.26,10.25a1.41,1.41,0,0,0-1.4-1.42h-17a1.42,1.42,0,0,0-1.41,1.42V43.18H187.85V10.25a1.41,1.41,0,0,0-1.41-1.42h-17A1.42,1.42,0,0,0,168,10.25V99.43a1.42,1.42,0,0,0,1.41,1.43h17a1.42,1.42,0,0,0,1.41-1.43V61.28h26.56l0,38.14a1.42,1.42,0,0,0,1.41,1.43h17.08a1.42,1.42,0,0,0,1.41-1.43V10.25Z"/><ellipse class="a" cx="99.45" cy="21.95" rx="10.99" ry="11.1"/><path class="a" d="M109.22,80.61V39.45A1.42,1.42,0,0,0,107.81,38h-17a1.63,1.63,0,0,0-1.48,1.59v59c0,1.73,1.08,2.25,2.48,2.25h15.31c1.68,0,2.09-.82,2.09-2.28V80.61Z"/><path class="a" d="M299,38.16H282.12a1.42,1.42,0,0,0-1.41,1.43V83.32a19.11,19.11,0,0,1-10.39,3.14c-6.1,0-7.72-2.77-7.72-8.74V39.59a1.42,1.42,0,0,0-1.41-1.43H244a1.42,1.42,0,0,0-1.41,1.43v41c0,17.73,9.88,22.07,23.48,22.07,11.15,0,20.15-6.16,20.15-6.16a35.81,35.81,0,0,0,.62,3.63,1.49,1.49,0,0,0,1.24.77l10.92,0a1.42,1.42,0,0,0,1.41-1.42V39.59A1.42,1.42,0,0,0,299,38.16Z"/><path class="a" d="M345.25,36.16a31.8,31.8,0,0,0-16.14,4.29V10.25a1.41,1.41,0,0,0-1.41-1.42H310.62a1.41,1.41,0,0,0-1.41,1.42V99.43a1.42,1.42,0,0,0,1.41,1.43h11.86a1.41,1.41,0,0,0,1.24-.76,27.79,27.79,0,0,0,.72-4.11s7,6.62,20.22,6.62c15.53,0,24.44-7.88,24.44-35.37S354.87,36.16,345.25,36.16Zm-6.67,50.24a20.28,20.28,0,0,1-9.84-2.84V55.32a22.54,22.54,0,0,1,8.74-2.84c6.09-.55,12,1.29,12,15.82C349.44,83.63,346.79,86.65,338.58,86.41Z"/><path class="a" d="M158.2,38H145.42l0-16.89a0.89,0.89,0,0,0-1.07-1H126.91a0.88,0.88,0,0,0-1,.95V38.58s-8.73,2.11-9.32,2.28a1.42,1.42,0,0,0-1,1.36v11a1.42,1.42,0,0,0,1.41,1.42h8.93V81c0,19.6,13.75,21.52,23,21.52A38.89,38.89,0,0,0,159,100.84a1.32,1.32,0,0,0,.8-1.28V87.5a1.44,1.44,0,0,0-1.41-1.42c-0.74,0-2.65.3-4.61,0.3-6.28,0-8.41-2.92-8.41-6.7s0-25.07,0-25.07H158.2a1.42,1.42,0,0,0,1.41-1.42V39.44A1.41,1.41,0,0,0,158.2,38Z"/></svg>