<svg xmlns="http://www.w3.org/2000/svg" viewBox="0 0 378 118"><defs><style>.a{fill:#fff;}</style></defs><title>GitHub_Logo_White</title><path class="a" d="M78.28,52H48A1.42,1.42,0,0,0,46.6,53.4V68.2A1.42,1.42,0,0,0,48,69.62H59.82V88s-2.65.9-10,.9c-8.65,0-20.73-3.16-20.73-29.72S41.69,29.12,53.5,29.12c10.22,0,14.63,1.8,17.43,2.67a1.42,1.42,0,0,0,1.69-1.39L76,16.1a1.32,1.32,0,0,0-.54-1.1c-1.14-.81-8.08-4.7-25.62-4.7-20.21,0-40.93,8.6-40.93,49.92S32.64,107.7,52.63,107.7c16.56,0,26.6-7.08,26.6-7.08a1.22,1.22,0,0,0,.46-1.07V53.4A1.41,1.41,0,0,0,78.28,52Z"/><path class="a" d="M234.26,15.25a1.41,1.41,0,0,0-1.4-1.42h-17a1.42,1.42,0,0,0-1.41,1.42V48.18H187.85V15.25a1.41,1.41,0,0,0-1.41-1.42h-17A1.42,1.42,0,0,0,168,15.25v89.18a1.42,1.42,0,0,0,1.41,1.43h17a1.42,1.42,0,0,0,1.41-1.43V66.28h26.56l0,38.14a1.42,1.42,0,0,0,1.41,1.43h17.08a1.42,1.42,0,0,0,1.41-1.43V15.25Z"/><ellipse class="a" cx="99.45" cy="26.95" rx="10.99" ry="11.1"/><path class="a" d="M109.22,85.61V44.45A1.42,1.42,0,0,0,107.81,43h-17a1.63,1.63,0,0,0-1.48,1.59v59c0,1.73,1.08,2.25,2.48,2.25h15.31c1.68,0,2.09-.82,2.09-2.28V85.61Z"/><path class="a" d="M299,43.16H282.12a1.42,1.42,0,0,0-1.41,1.43V88.32a19.11,19.11,0,0,1-10.39,3.14c-6.1,0-7.72-2.77-7.72-8.74V44.59a1.42,1.42,0,0,0-1.41-1.43H244a1.42,1.42,0,0,0-1.41,1.43v41c0,17.73,9.88,22.07,23.48,22.07,11.15,0,20.15-6.16,20.15-6.16a35.81,35.81,0,0,0,.62,3.63,1.49,1.49,0,0,0,1.24.77l10.92,0a1.42,1.42,0,0,0,1.41-1.42V44.59A1.42,1.42,0,0,0,299,43.16Z"/><path class="a" d="M345.25,41.16a31.8,31.8,0,0,0-16.14,4.29V15.25a1.41,1.41,0,0,0-1.41-1.42H310.62a1.41,1.41,0,0,0-1.41,1.42v89.18a1.42,1.42,0,0,0,1.41,1.43h11.86a1.41,1.41,0,0,0,1.24-.76,27.79,27.79,0,0,0,.72-4.11s7,6.62,20.22,6.62c15.53,0,24.44-7.88,24.44-35.37S354.87,41.16,345.25,41.16Zm-6.67,50.24a20.28,20.28,0,0,1-9.84-2.84V60.32a22.54,22.54,0,0,1,8.74-2.84c6.09-.55,12,1.29,12,15.82C349.44,88.63,346.79,91.65,338.58,91.41Z"/><path class="a" d="M158.2,43H145.42l0-16.89a0.89,0.89,0,0,0-1.07-1H126.91a0.88,0.88,0,0,0-1,.95V43.58s-8.73,2.11-9.32,2.28a1.42,1.42,0,0,0-1,1.36v11a1.42,1.42,0,0,0,1.41,1.42h8.93V86c0,19.6,13.75,21.52,23,21.52A38.89,38.89,0,0,0,159,105.84a1.32,1.32,0,0,0,.8-1.28V92.5a1.44,1.44,0,0,0-1.41-1.42c-0.74,0-2.65.3-4.61,0.3-6.28,0-8.41-2.92-8.41-6.7s0-25.07,0-25.07H158.2a1.42,1.42,0,0,0,1.41-1.42V44.44A1.41,1.41,0,0,0,158.2,43Z"/></svg>