<svg xmlns="http://www.w3.org/2000/svg" viewBox="0 0 148.34 36"><defs><style>.a{fill:#231f20;}</style></defs><title>Dark-LinkedIn-Name</title><path class="a" d="M146.34,29.05a0.64,0.64,0,0,0,.64-0.68,0.71,0.71,0,0,0-.88-0.71h-1v2.51h0.36V29.08H146l0.69,1.08H147l-0.74-1.12h0Zm-0.42-.25H145.5V28H146c0.27,0,.59,0,0.59.4S146.31,28.8,145.92,28.8Z"/><path class="a" d="M146,26.55a2.37,2.37,0,1,0,2.37,2.37A2.35,2.35,0,0,0,146,26.55ZM146,31a2.06,2.06,0,1,1,2-2.06A2,2,0,0,1,146,31Z"/><polygon class="a" points="0 5.32 5.55 5.32 5.55 25.55 15.83 25.55 15.83 30.68 0 30.68 0 5.32"/><path class="a" d="M18.29,13.49h5.34V30.67H18.29V13.49ZM21,4.95A3.09,3.09,0,1,1,17.86,8,3.1,3.1,0,0,1,21,4.95"/><polygon class="a" points="45.94 5.32 51.27 5.32 51.27 20.48 57.32 13.48 63.86 13.48 56.86 21.43 63.71 30.68 57.01 30.68 51.34 22.18 51.27 22.18 51.27 30.68 45.94 30.68 45.94 5.32"/><path class="a" d="M26.58,13.49H31.7v2.35h0.07a5.61,5.61,0,0,1,5.05-2.77c5.41,0,6.4,3.56,6.4,8.18v9.42H37.89V22.32c0-2,0-4.55-2.78-4.55s-3.2,2.17-3.2,4.41v8.5H26.58V13.49Z"/><path class="a" d="M75.09,20.08a3.2,3.2,0,0,0-3.28-3.27A3.56,3.56,0,0,0,68,20.08h7Zm4.52,7.61a9.4,9.4,0,0,1-7.29,3.42c-5.34,0-9.61-3.56-9.61-9.08S67,13,72.32,13c5,0,8.11,3.56,8.11,9.07v1.67H68a4,4,0,0,0,4,3.35A4.55,4.55,0,0,0,75.87,25Z"/><path class="a" d="M91.55,17.64A4,4,0,0,0,87.28,22a4.27,4.27,0,1,0,8.54,0,4,4,0,0,0-4.27-4.38m9.18,13H95.82V28.39H95.75a6.71,6.71,0,0,1-5.3,2.71c-5.13,0-8.51-3.7-8.51-8.93,0-4.81,3-9.22,7.9-9.22,2.21,0,4.27.6,5.48,2.28h0.07V5.32h5.34V30.67Z"/><path class="a" d="M139.4,0H108.72a2.63,2.63,0,0,0-2.66,2.6V33.4a2.63,2.63,0,0,0,2.66,2.6H139.4a2.63,2.63,0,0,0,2.66-2.6V2.6A2.63,2.63,0,0,0,139.4,0ZM116.75,30.68H111.4V13.5h5.34V30.68Zm-2.67-19.53a3.1,3.1,0,1,1,3.09-3.1A3.1,3.1,0,0,1,114.08,11.15Zm22.67,19.53h-5.34V22.32c0-2,0-4.56-2.78-4.56s-3.2,2.17-3.2,4.41v8.5H120.1V13.5h5.12v2.35h0.07a5.61,5.61,0,0,1,5.05-2.77c5.41,0,6.4,3.56,6.4,8.18v9.42Z"/></svg>